# xmcd
#
# Track frame offsets: 
#        150
#        16871
#        31562
#        50779
#        74711
#        91654
#        117028
#        134028
#        162765
#        175740
#        199736
#        208959
#        222084
#        242634
#        266043
#        289214
#        311555
#
# Disc length: 4488 seconds
#
# Revision: 1
# Processed by: cddbd v1.5.2PL0 Copyright (c) Steve Scherf et al.
# Submitted via: ExactAudioCopy v0.99pb4
#
DISCID=fa118611
DTITLE=Bruce Springsteen - Minneapolis, 10-12-05[CD1]
DYEAR=2005
DGENRE=Rock and Roll
TTITLE0=Wreck On The Highway
TTITLE1=Idiot's Delight
TTITLE2=Into The Fire
TTITLE3=Devils and Dust
TTITLE4=Lonesome Day
TTITLE5=Long Time Comin'
TTITLE6=Back In Your Arms
TTITLE7=For You
TTITLE8=Johnny 99
TTITLE9=All I'm Thinking About
TTITLE10=intro
TTITLE11=Ain't Got You
TTITLE12=One Step Up
TTITLE13=Reno
TTITLE14=Nothing Man
TTITLE15=10th Avenue Freezeout
TTITLE16=The Rising
EXTD=
EXTT0=
EXTT1=
EXTT2=
EXTT3=
EXTT4=
EXTT5=
EXTT6=
EXTT7=
EXTT8=
EXTT9=
EXTT10=
EXTT11=
EXTT12=
EXTT13=
EXTT14=
EXTT15=
EXTT16=
PLAYORDER=
